<?xml version="1.0" encoding="utf-8"?>
<!-- Generator: Adobe Illustrator 24.2.1, SVG Export Plug-In . SVG Version: 6.00 Build 0)  -->
<svg version="1.1" id="Laag_1" xmlns="http://www.w3.org/2000/svg" xmlns:xlink="http://www.w3.org/1999/xlink" x="0px" y="0px"
	 viewBox="0 0 185.35 135" style="enable-background:new 0 0 185.35 135;" xml:space="preserve">
<style type="text/css">
	.st0{fill:#FC6E00;}
</style>
<path class="st0" d="M13.2,53.98l5.59-0.7c6.6-0.83,11.98-7.41,11.98-14.64c0-7.16-5.39-12.39-11.98-11.56l-5.59,0.7V53.98z
	 M0,14.59l18.72-2.35c13.94-1.75,25.25,9.24,25.25,24.52s-11.31,29.1-25.25,30.85L0,69.96V14.59z"/>
<polygon class="st0" points="39.92,9.58 53.19,7.92 53.19,63.29 39.92,64.95 "/>
<path class="st0" d="M103.28,27.25v2.07c0,15.28-11.31,29.1-25.25,30.85c-13.94,1.75-25.18-9.24-25.18-24.52S64.09,6.55,78.03,4.8
	c6.93-0.87,13.2,1.45,17.77,5.82l-9.36,11.36c-2.15-1.94-4.98-3.07-8.42-2.64c-6.33,0.79-11.92,7.03-11.92,14.64
	c0,7.6,5.72,12.42,11.92,11.64c3.97-0.5,7.67-3.1,9.76-6.69l-9.76,1.22v-9.74L103.28,27.25z"/>
<polygon class="st0" points="116.34,0 103.08,1.66 103.08,57.03 116.34,55.37 "/>
<path class="st0" d="M22.15,120.26c2.42-0.3,4.38-2.69,4.38-5.35s-2.09-4.54-4.38-4.25l-8.89,1.11v9.6L22.15,120.26z M19.66,98.8
	c2.42-0.3,4.38-2.69,4.38-5.35c0-2.66-1.95-4.55-4.38-4.25l-6.4,0.8v9.6L19.66,98.8z M0,135V79.63l22.28-2.79
	c8.08-1.01,14.95,5.73,14.95,14.59c0,3.76-1.28,7.4-3.23,10.37c3.43,2.6,5.72,6.96,5.72,11.98c0,8.78-6.8,17.09-14.81,18.1L0,135z"
	/>
<polygon class="st0" points="36.56,75.05 67.93,71.11 67.93,83.15 49.82,85.42 49.82,94.42 65.85,92.41 65.85,104.67 49.82,106.68 
	49.82,116.87 67.93,114.59 67.93,126.48 36.56,130.41 "/>
<polygon class="st0" points="106.44,121.65 82.61,98.43 82.61,124.64 69.35,126.3 69.35,70.94 74.73,70.26 98.63,93.4 98.63,67.26 
	111.9,65.6 111.9,120.96 "/>
<path class="st0" d="M127.18,104.73l5.59-0.7c6.6-0.83,11.99-7.41,11.99-14.64c0-7.16-5.39-12.39-11.99-11.56l-5.59,0.7V104.73z
	 M113.98,65.34l18.72-2.35c13.94-1.75,25.25,9.24,25.25,24.52s-11.31,29.1-25.25,30.85l-18.72,2.35V65.34z"/>
<polygon class="st0" points="153.98,60.32 153.98,115.69 185.35,111.75 185.35,99.87 167.24,102.14 167.24,91.95 183.26,89.94 
	183.26,77.69 167.24,79.7 167.24,70.69 185.35,68.42 185.35,56.38 "/>
</svg>
